<svg width="678" height="157" viewBox="0 0 678 157" fill="none" xmlns="http://www.w3.org/2000/svg">
<g opacity="0.15">
<path d="M5.29494 150.365C5.29494 150.643 5.43612 150.921 5.57732 151.13C5.78912 151.339 6.07155 151.478 6.35395 151.478C6.63636 151.478 6.91874 151.339 7.13054 151.13C7.34235 150.921 7.41296 150.643 7.41296 150.365C7.41296 150.087 7.27175 149.809 7.13054 149.601C6.91874 149.392 6.63636 149.323 6.35395 149.323C6.07155 149.323 5.78912 149.462 5.57732 149.601C5.43612 149.809 5.29494 150.087 5.29494 150.365Z" fill="#FFA800" fill-opacity="0.61"/>
<path d="M6.35415 7.78589C6.91895 7.78589 7.34253 7.36878 7.34253 6.81264C7.34253 6.25651 6.91895 5.83941 6.35415 5.83941C5.78934 5.83941 5.36572 6.25651 5.36572 6.81264C5.36572 7.36878 5.78934 7.78589 6.35415 7.78589Z" fill="#FFA800" fill-opacity="0.61"/>
<path d="M6.35392 47.5497C9.03675 47.5497 11.2253 45.3947 11.2253 42.7531C11.2253 40.1114 9.03675 37.9564 6.35392 37.9564C3.6711 37.9564 1.48246 40.1114 1.48246 42.7531C1.48246 45.3947 3.67109 47.5497 6.35392 47.5497Z" fill="#FFA800" fill-opacity="0.61"/>
<path d="M6.35407 84.8803C9.8841 84.8803 12.7081 82.0996 12.7081 78.6238C12.7081 75.1479 9.8841 72.3672 6.35407 72.3672C2.82404 72.3672 7.74726e-06 75.1479 7.70517e-06 78.6238C7.66307e-06 82.0996 2.82404 84.8803 6.35407 84.8803Z" fill="#FFA800" fill-opacity="0.61"/>
<path d="M6.35405 116.024C7.20125 116.024 7.90723 115.329 7.90723 114.495C7.90723 113.66 7.20125 112.965 6.35405 112.965C5.50684 112.965 4.80082 113.66 4.80082 114.495C4.80082 115.329 5.50684 116.024 6.35405 116.024Z" fill="#FFA800" fill-opacity="0.61"/>
<path d="M46.5259 150.365C46.5259 151.478 46.9496 152.52 47.7262 153.285C48.5028 154.05 49.5618 154.467 50.6914 154.467C51.821 154.467 52.88 154.05 53.6566 153.285C54.4332 152.52 54.8568 151.478 54.8568 150.365C54.8568 149.253 54.4332 148.21 53.6566 147.446C52.88 146.681 51.821 146.264 50.6914 146.264C49.5618 146.264 48.5028 146.681 47.7262 147.446C46.9496 148.28 46.5259 149.323 46.5259 150.365Z" fill="#FFA800" fill-opacity="0.61"/>
<path d="M50.6913 8.75928C51.7503 8.75928 52.6681 7.92507 52.6681 6.8128C52.6681 5.77004 51.7503 4.86632 50.6913 4.86632C49.6323 4.86632 48.7145 5.77004 48.7145 6.8128C48.7145 7.85555 49.5617 8.75928 50.6913 8.75928Z" fill="#FFA800" fill-opacity="0.61"/>
<path d="M50.6915 45.3948C52.1741 45.3948 53.4449 44.213 53.4449 42.6836C53.4449 41.2238 52.2447 39.9724 50.6915 39.9724C49.2089 39.9724 47.938 41.1542 47.938 42.6836C47.938 44.213 49.1383 45.3948 50.6915 45.3948Z" fill="#FFA800" fill-opacity="0.61"/>
<path d="M50.6912 84.6719C54.08 84.6719 56.8334 81.9607 56.8334 78.6239C56.8334 75.2871 54.08 72.5759 50.6912 72.5759C47.3023 72.5759 44.5489 75.2871 44.5489 78.6239C44.5489 81.9607 47.3023 84.6719 50.6912 84.6719Z" fill="#FFA800" fill-opacity="0.61"/>
<path d="M50.6913 118.805C53.0917 118.805 55.0685 116.858 55.0685 114.495C55.0685 112.131 53.0917 110.185 50.6913 110.185C48.2909 110.185 46.314 112.131 46.314 114.495C46.314 116.858 48.2909 118.805 50.6913 118.805Z" fill="#FFA800" fill-opacity="0.61"/>
<path d="M88.4626 150.365C88.4626 152.034 89.1686 153.702 90.3688 154.884C91.569 156.135 93.2634 156.831 94.9578 156.831C96.6523 156.831 98.3467 156.135 99.5469 154.954C100.747 153.772 101.453 152.103 101.453 150.435C101.453 148.767 100.747 147.098 99.5469 145.847C98.3467 144.665 96.6523 143.97 94.9578 143.97C93.2634 143.97 91.569 144.665 90.2982 145.847C89.1686 147.029 88.4626 148.697 88.4626 150.365Z" fill="#FFA800" fill-opacity="0.61"/>
<path d="M94.9581 9.38483C96.3701 9.38483 97.5703 8.27256 97.5703 6.8127C97.5703 5.42236 96.4407 4.24057 94.9581 4.24057C93.546 4.24057 92.3458 5.35284 92.3458 6.8127C92.4164 8.20304 93.546 9.38483 94.9581 9.38483Z" fill="#FFA800" fill-opacity="0.61"/>
<path d="M94.9581 49.3574C98.6293 49.3574 101.665 46.3681 101.665 42.7532C101.665 39.1384 98.6293 36.1491 94.9581 36.1491C91.2869 36.1491 88.251 39.1384 88.251 42.7532C88.251 46.3681 91.2869 49.3574 94.9581 49.3574Z" fill="#FFA800" fill-opacity="0.61"/>
<path d="M94.958 81.5435C96.5818 81.5435 97.9232 80.2226 97.9232 78.6237C97.9232 77.0249 96.5818 75.704 94.958 75.704C93.3342 75.704 91.9928 77.0249 91.9928 78.6237C91.9928 80.2226 93.3342 81.5435 94.958 81.5435Z" fill="#FFA800" fill-opacity="0.61"/>
<path d="M94.958 116.719C96.2288 116.719 97.2172 115.746 97.2172 114.495C97.2172 113.243 96.2288 112.27 94.958 112.27C93.6872 112.27 92.6988 113.243 92.6988 114.495C92.6988 115.746 93.7578 116.719 94.958 116.719Z" fill="#FFA800" fill-opacity="0.61"/>
<path d="M135.906 150.365C135.906 151.269 136.259 152.103 136.895 152.729C137.53 153.355 138.377 153.702 139.295 153.702C140.213 153.702 141.06 153.355 141.696 152.729C142.331 152.103 142.684 151.269 142.684 150.365C142.684 149.462 142.331 148.628 141.696 148.002C141.06 147.376 140.213 147.029 139.295 147.029C138.377 147.029 137.53 147.376 136.895 148.002C136.259 148.628 135.906 149.531 135.906 150.365Z" fill="#FFA800" fill-opacity="0.61"/>
<path d="M139.295 11.9568C142.19 11.9568 144.519 9.66278 144.519 6.81258C144.519 3.96239 142.19 1.66833 139.295 1.66833C136.4 1.66833 134.071 3.96239 134.071 6.81258C134.071 9.66278 136.4 11.9568 139.295 11.9568Z" fill="#FFA800" fill-opacity="0.61"/>
<path d="M139.295 46.3679C141.343 46.3679 143.037 44.6994 143.037 42.6835C143.037 40.6675 141.343 38.9991 139.295 38.9991C137.248 38.9991 135.553 40.6675 135.553 42.6835C135.553 44.769 137.248 46.3679 139.295 46.3679Z" fill="#FFA800" fill-opacity="0.61"/>
<path d="M139.295 85.1585C142.967 85.1585 145.932 82.2388 145.932 78.6239C145.932 75.009 142.967 72.0893 139.295 72.0893C135.624 72.0893 132.659 75.009 132.659 78.6239C132.659 82.2388 135.624 85.1585 139.295 85.1585Z" fill="#FFA800" fill-opacity="0.61"/>
<path d="M139.295 116.232C140.283 116.232 141.06 115.468 141.06 114.495C141.06 113.521 140.283 112.757 139.295 112.757C138.307 112.757 137.53 113.521 137.53 114.495C137.53 115.468 138.307 116.232 139.295 116.232Z" fill="#FFA800" fill-opacity="0.61"/>
<path d="M178.408 150.365C178.408 151.686 178.973 153.007 179.89 153.98C180.879 154.953 182.22 155.51 183.562 155.51C184.903 155.51 186.244 154.953 187.233 154.05C188.221 153.076 188.786 151.756 188.786 150.435C188.786 149.114 188.221 147.793 187.233 146.82C186.244 145.847 184.974 145.36 183.562 145.36C182.22 145.36 180.879 145.916 179.89 146.82C178.973 147.724 178.408 149.044 178.408 150.365Z" fill="#FFA800" fill-opacity="0.61"/>
<path d="M183.632 10.7753C185.821 10.7753 187.657 9.03741 187.657 6.81286C187.657 4.65783 185.821 2.85039 183.632 2.85039C181.444 2.85039 179.608 4.65783 179.608 6.81286C179.608 9.03741 181.373 10.7753 183.632 10.7753Z" fill="#FFA800" fill-opacity="0.61"/>
<path d="M183.632 48.5228C186.88 48.5228 189.492 45.9507 189.492 42.7529C189.492 39.5551 186.88 36.983 183.632 36.983C180.385 36.983 177.772 39.5551 177.772 42.7529C177.772 45.8812 180.385 48.5228 183.632 48.5228Z" fill="#FFA800" fill-opacity="0.61"/>
<path d="M183.632 82.8644C186.033 82.8644 188.01 80.918 188.01 78.5544C188.01 76.1908 186.033 74.2443 183.632 74.2443C181.232 74.2443 179.255 76.1213 179.255 78.5544C179.255 80.9875 181.232 82.8644 183.632 82.8644Z" fill="#FFA800" fill-opacity="0.61"/>
<path d="M183.633 117.136C185.115 117.136 186.245 115.955 186.245 114.564C186.245 113.104 185.045 111.992 183.633 111.992C182.15 111.992 181.02 113.174 181.02 114.564C180.95 115.955 182.15 117.136 183.633 117.136Z" fill="#FFA800" fill-opacity="0.61"/>
<path d="M225.287 150.365C225.287 151.061 225.569 151.686 226.063 152.173C226.558 152.659 227.264 152.937 227.899 152.937C228.605 152.937 229.241 152.659 229.735 152.173C230.229 151.686 230.511 150.991 230.511 150.365C230.511 149.67 230.229 149.045 229.735 148.558C229.241 148.071 228.535 147.793 227.899 147.793C227.193 147.793 226.558 148.071 226.063 148.558C225.569 149.045 225.287 149.74 225.287 150.365Z" fill="#FFA800" fill-opacity="0.61"/>
<path d="M227.899 13.4865C231.641 13.4865 234.677 10.4972 234.677 6.81281C234.677 3.12841 231.641 0.139184 227.899 0.139184C224.157 0.139184 221.121 3.12841 221.121 6.81281C221.121 10.4972 224.157 13.4865 227.899 13.4865Z" fill="#FFA800" fill-opacity="0.61"/>
<path d="M227.899 48.7314C231.288 48.7314 234.041 46.0203 234.041 42.6835C234.041 39.3467 231.288 36.6355 227.899 36.6355C224.51 36.6355 221.757 39.3467 221.757 42.6835C221.827 46.0203 224.51 48.7314 227.899 48.7314Z" fill="#FFA800" fill-opacity="0.61"/>
<path d="M227.899 84.811C231.358 84.811 234.182 82.0303 234.182 78.624C234.182 75.2176 231.358 72.4369 227.899 72.4369C224.44 72.4369 221.616 75.2176 221.616 78.624C221.686 82.0303 224.44 84.811 227.899 84.811Z" fill="#FFA800" fill-opacity="0.61"/>
<path d="M227.899 120.334C231.217 120.334 233.83 117.692 233.83 114.495C233.83 111.227 231.147 108.655 227.899 108.655C224.581 108.655 221.969 111.297 221.969 114.495C221.969 117.762 224.651 120.334 227.899 120.334Z" fill="#FFA800" fill-opacity="0.61"/>
<path d="M270.471 150.365C270.471 150.852 270.683 151.269 270.965 151.617C271.318 151.964 271.742 152.103 272.236 152.103C272.73 152.103 273.154 151.895 273.507 151.617C273.86 151.269 274.001 150.852 274.001 150.365C274.001 149.879 273.789 149.462 273.507 149.114C273.154 148.767 272.73 148.627 272.236 148.627C271.742 148.627 271.318 148.836 270.965 149.114C270.612 149.462 270.471 149.948 270.471 150.365Z" fill="#FFA800" fill-opacity="0.61"/>
<path d="M272.236 13.6254C276.049 13.6254 279.155 10.5666 279.155 6.8127C279.155 3.05878 276.049 2.66664e-05 272.236 2.66216e-05C268.424 2.65769e-05 265.317 3.05878 265.317 6.8127C265.317 10.5666 268.424 13.6254 272.236 13.6254Z" fill="#FFA800" fill-opacity="0.61"/>
<path d="M272.236 49.079C275.837 49.079 278.732 46.2288 278.732 42.6834C278.732 39.138 275.837 36.2879 272.236 36.2879C268.636 36.2879 265.741 39.138 265.741 42.6834C265.741 46.2288 268.636 49.079 272.236 49.079Z" fill="#FFA800" fill-opacity="0.61"/>
<path d="M272.236 84.9498C275.766 84.9498 278.661 82.0996 278.661 78.6238C278.661 75.1479 275.766 72.2977 272.236 72.2977C268.706 72.2977 265.812 75.1479 265.812 78.6238C265.812 82.0996 268.706 84.9498 272.236 84.9498Z" fill="#FFA800" fill-opacity="0.61"/>
<path d="M272.236 116.232C273.225 116.232 274.001 115.468 274.001 114.495C274.001 113.521 273.225 112.757 272.236 112.757C271.248 112.757 270.471 113.521 270.471 114.495C270.471 115.468 271.248 116.232 272.236 116.232Z" fill="#FFA800" fill-opacity="0.61"/>
<path d="M313.75 150.365C313.75 151.06 314.032 151.825 314.597 152.312C315.091 152.798 315.868 153.146 316.574 153.146C317.28 153.146 318.056 152.868 318.55 152.312C319.045 151.825 319.398 151.06 319.398 150.365C319.398 149.67 319.115 148.905 318.55 148.419C318.056 147.932 317.28 147.585 316.574 147.585C315.868 147.585 315.091 147.863 314.597 148.419C314.032 148.975 313.75 149.67 313.75 150.365Z" fill="#FFA800" fill-opacity="0.61"/>
<path d="M316.573 11.5398C319.256 11.5398 321.374 9.45428 321.374 6.81264C321.374 4.17099 319.256 2.08548 316.573 2.08548C313.891 2.08548 311.773 4.17099 311.773 6.81264C311.773 9.45428 313.891 11.5398 316.573 11.5398Z" fill="#FFA800" fill-opacity="0.61"/>
<path d="M316.574 44.4909C317.562 44.4909 318.339 43.7262 318.339 42.753C318.339 41.7797 317.562 41.0151 316.574 41.0151C315.585 41.0151 314.809 41.7797 314.809 42.753C314.738 43.6567 315.585 44.4909 316.574 44.4909Z" fill="#FFA800" fill-opacity="0.61"/>
<path d="M316.574 83.5595C319.398 83.5595 321.657 81.335 321.657 78.5543C321.657 75.8431 319.398 73.5491 316.574 73.5491C313.82 73.5491 311.49 75.7736 311.49 78.5543C311.49 81.335 313.75 83.5595 316.574 83.5595Z" fill="#FFA800" fill-opacity="0.61"/>
<path d="M316.573 118.526C318.833 118.526 320.668 116.719 320.668 114.494C320.668 112.27 318.833 110.463 316.573 110.463C314.314 110.463 312.479 112.27 312.479 114.494C312.408 116.719 314.244 118.526 316.573 118.526Z" fill="#FFA800" fill-opacity="0.61"/>
<path d="M359.569 150.365C359.569 150.713 359.711 150.991 359.922 151.269C360.134 151.478 360.487 151.617 360.84 151.617C361.193 151.617 361.476 151.478 361.758 151.269C361.97 151.061 362.111 150.713 362.111 150.365C362.111 150.018 361.97 149.67 361.758 149.462C361.546 149.253 361.193 149.114 360.84 149.114C360.487 149.114 360.134 149.253 359.922 149.462C359.711 149.74 359.569 150.087 359.569 150.365Z" fill="#FFA800" fill-opacity="0.61"/>
<path d="M360.84 11.0533C363.24 11.0533 365.147 9.17638 365.147 6.8128C365.147 4.44922 363.24 2.57227 360.84 2.57227C358.44 2.57227 356.533 4.44922 356.533 6.8128C356.533 9.17638 358.44 11.0533 360.84 11.0533Z" fill="#FFA800" fill-opacity="0.61"/>
<path d="M360.84 45.6032C362.464 45.6032 363.805 44.2824 363.805 42.6835C363.805 41.0846 362.464 39.7638 360.84 39.7638C359.216 39.7638 357.875 41.0846 357.875 42.6835C357.875 44.3519 359.216 45.6032 360.84 45.6032Z" fill="#FFA800" fill-opacity="0.61"/>
<path d="M360.84 83.0035C363.311 83.0035 365.288 81.0571 365.288 78.624C365.288 76.1909 363.311 74.2444 360.84 74.2444C358.369 74.2444 356.392 76.1909 356.392 78.624C356.392 81.0571 358.369 83.0035 360.84 83.0035Z" fill="#FFA800" fill-opacity="0.61"/>
<path d="M360.84 115.676C361.475 115.676 362.04 115.12 362.04 114.495C362.04 113.869 361.475 113.313 360.84 113.313C360.205 113.313 359.64 113.869 359.64 114.495C359.64 115.12 360.205 115.676 360.84 115.676Z" fill="#FFA800" fill-opacity="0.61"/>
<path d="M401.859 150.365C401.859 151.199 402.212 152.034 402.847 152.659C403.483 153.285 404.33 153.633 405.177 153.633C406.025 153.633 406.872 153.285 407.507 152.659C408.143 152.034 408.496 151.199 408.496 150.365C408.496 149.531 408.143 148.697 407.507 148.071C406.872 147.446 406.025 147.098 405.177 147.098C404.33 147.098 403.483 147.446 402.847 148.071C402.212 148.697 401.859 149.531 401.859 150.365Z" fill="#FFA800" fill-opacity="0.61"/>
<path d="M405.177 12.6523C408.425 12.6523 411.108 10.0801 411.108 6.81285C411.108 3.61506 408.495 0.973421 405.177 0.973421C401.93 0.973421 399.247 3.54555 399.247 6.81285C399.247 10.0106 401.93 12.6523 405.177 12.6523Z" fill="#FFA800" fill-opacity="0.61"/>
<path d="M405.177 49.4267C408.919 49.4267 411.955 46.4375 411.955 42.7531C411.955 39.0687 408.919 36.0794 405.177 36.0794C401.435 36.0794 398.4 39.0687 398.4 42.7531C398.329 46.4375 401.435 49.4267 405.177 49.4267Z" fill="#FFA800" fill-opacity="0.61"/>
<path d="M405.177 84.9498C408.778 84.9498 411.672 82.0996 411.672 78.5543C411.672 75.0089 408.778 72.1587 405.177 72.1587C401.577 72.1587 398.682 75.0089 398.682 78.5543C398.682 82.0996 401.577 84.9498 405.177 84.9498Z" fill="#FFA800" fill-opacity="0.61"/>
<path d="M405.177 118.387C407.366 118.387 409.131 116.649 409.131 114.494C409.131 112.339 407.366 110.601 405.177 110.601C402.989 110.601 401.224 112.339 401.224 114.494C401.224 116.649 402.989 118.387 405.177 118.387Z" fill="#FFA800" fill-opacity="0.61"/>
<path d="M444.855 150.365C444.855 151.547 445.349 152.729 446.196 153.633C447.043 154.467 448.244 154.954 449.514 154.954C450.715 154.954 451.915 154.467 452.833 153.633C453.68 152.799 454.174 151.617 454.174 150.365C454.174 149.114 453.68 148.002 452.833 147.098C451.985 146.264 450.785 145.777 449.514 145.777C448.314 145.777 447.114 146.264 446.196 147.098C445.349 148.002 444.855 149.184 444.855 150.365Z" fill="#FFA800" fill-opacity="0.61"/>
<path d="M449.444 13.5558C453.186 13.5558 456.292 10.5666 456.292 6.8127C456.292 3.1283 453.257 0.0695505 449.444 0.0695504C445.702 0.0695504 442.596 3.05878 442.596 6.8127C442.666 10.5666 445.702 13.5558 449.444 13.5558Z" fill="#FFA800" fill-opacity="0.61"/>
<path d="M449.444 46.2983C451.421 46.2983 453.045 44.6994 453.045 42.753C453.045 40.8065 451.421 39.2076 449.444 39.2076C447.467 39.2076 445.843 40.8065 445.843 42.753C445.843 44.6994 447.467 46.2983 449.444 46.2983Z" fill="#FFA800" fill-opacity="0.61"/>
<path d="M449.444 81.8912C451.28 81.8912 452.762 80.4313 452.762 78.6239C452.762 76.8164 451.28 75.3566 449.444 75.3566C447.608 75.3566 446.126 76.8164 446.126 78.6239C446.196 80.4313 447.679 81.8912 449.444 81.8912Z" fill="#FFA800" fill-opacity="0.61"/>
<path d="M449.444 117.623C451.209 117.623 452.621 116.233 452.621 114.495C452.621 112.757 451.209 111.366 449.444 111.366C447.679 111.366 446.267 112.757 446.267 114.495C446.337 116.233 447.749 117.623 449.444 117.623Z" fill="#FFA800" fill-opacity="0.61"/>
<path d="M492.157 150.365C492.157 150.783 492.298 151.2 492.651 151.547C492.934 151.825 493.357 152.034 493.852 152.034C494.275 152.034 494.699 151.825 495.052 151.547C495.334 151.269 495.546 150.852 495.546 150.365C495.546 149.948 495.334 149.531 495.052 149.184C494.769 148.906 494.346 148.697 493.852 148.697C493.428 148.697 493.004 148.836 492.651 149.184C492.298 149.531 492.157 149.948 492.157 150.365Z" fill="#FFA800" fill-opacity="0.61"/>
<path d="M493.781 8.55066C494.769 8.55066 495.546 7.78597 495.546 6.81273C495.546 5.8395 494.769 5.07481 493.781 5.07481C492.793 5.07481 492.016 5.8395 492.016 6.81273C492.016 7.78597 492.793 8.55066 493.781 8.55066Z" fill="#FFA800" fill-opacity="0.61"/>
<path d="M493.781 47.4802C496.464 47.4802 498.653 45.3252 498.653 42.6836C498.653 40.0419 496.464 37.8869 493.781 37.8869C491.098 37.8869 488.91 40.0419 488.91 42.6836C488.98 45.3252 491.098 47.4802 493.781 47.4802Z" fill="#FFA800" fill-opacity="0.61"/>
<path d="M493.781 83.6986C496.605 83.6986 498.935 81.4045 498.935 78.6239C498.935 75.8432 496.605 73.5491 493.781 73.5491C490.957 73.5491 488.627 75.8432 488.627 78.6239C488.627 81.4045 490.957 83.6986 493.781 83.6986Z" fill="#FFA800" fill-opacity="0.61"/>
<path d="M493.781 118.596C496.111 118.596 497.946 116.789 497.946 114.495C497.946 112.27 496.111 110.393 493.781 110.393C491.451 110.393 489.616 112.201 489.616 114.495C489.616 116.789 491.522 118.596 493.781 118.596Z" fill="#FFA800" fill-opacity="0.61"/>
<path d="M532.4 150.365C532.4 151.825 533.035 153.285 534.094 154.328C535.153 155.371 536.636 155.996 538.118 155.996C539.601 155.996 541.084 155.371 542.143 154.328C543.202 153.285 543.837 151.825 543.837 150.365C543.837 148.906 543.202 147.446 542.143 146.403C541.084 145.36 539.601 144.735 538.118 144.735C536.636 144.735 535.153 145.36 534.094 146.403C533.035 147.446 532.4 148.906 532.4 150.365Z" fill="#FFA800" fill-opacity="0.61"/>
<path d="M538.119 8.68976C539.178 8.68976 540.025 7.85556 540.025 6.8128C540.025 5.77005 539.178 4.93584 538.119 4.93584C537.059 4.93584 536.212 5.77005 536.212 6.8128C536.212 7.85556 537.059 8.68976 538.119 8.68976Z" fill="#FFA800" fill-opacity="0.61"/>
<path d="M538.118 44.5604C539.107 44.5604 539.954 43.7262 539.954 42.753C539.954 41.7797 539.107 40.9455 538.118 40.9455C537.13 40.9455 536.283 41.7797 536.283 42.753C536.283 43.7262 537.059 44.5604 538.118 44.5604Z" fill="#FFA800" fill-opacity="0.61"/>
<path d="M538.119 80.5009C539.178 80.5009 540.025 79.6667 540.025 78.6239C540.025 77.5811 539.178 76.7469 538.119 76.7469C537.059 76.7469 536.212 77.5811 536.212 78.6239C536.212 79.6667 537.059 80.5009 538.119 80.5009Z" fill="#FFA800" fill-opacity="0.61"/>
<path d="M538.118 117.553C539.884 117.553 541.225 116.163 541.225 114.495C541.225 112.757 539.813 111.436 538.118 111.436C536.353 111.436 535.012 112.826 535.012 114.495C534.941 116.233 536.353 117.553 538.118 117.553Z" fill="#FFA800" fill-opacity="0.61"/>
<path d="M576.596 150.366C576.596 151.895 577.231 153.355 578.29 154.398C579.349 155.51 580.902 156.135 582.385 156.135C583.938 156.135 585.421 155.51 586.48 154.467C587.539 153.424 588.174 151.895 588.174 150.435C588.174 148.906 587.539 147.446 586.48 146.403C585.421 145.36 583.868 144.735 582.385 144.735C580.832 144.735 579.349 145.36 578.219 146.403C577.16 147.376 576.596 148.906 576.596 150.366Z" fill="#FFA800" fill-opacity="0.61"/>
<path d="M582.385 10.9838C584.715 10.9838 586.621 9.10687 586.621 6.8128C586.621 4.51874 584.715 2.64178 582.385 2.64178C580.055 2.64178 578.149 4.51874 578.149 6.8128C578.219 9.10687 580.126 10.9838 582.385 10.9838Z" fill="#FFA800" fill-opacity="0.61"/>
<path d="M582.385 48.4534C585.562 48.4534 588.174 45.8813 588.174 42.753C588.174 39.6248 585.562 37.0526 582.385 37.0526C579.208 37.0526 576.596 39.6248 576.596 42.753C576.596 45.8813 579.208 48.4534 582.385 48.4534Z" fill="#FFA800" fill-opacity="0.61"/>
<path d="M582.385 79.7362C583.02 79.7362 583.585 79.2496 583.585 78.5544C583.585 77.9288 583.091 77.3726 582.385 77.3726C581.749 77.3726 581.185 77.8592 581.185 78.5544C581.255 79.2496 581.749 79.7362 582.385 79.7362Z" fill="#FFA800" fill-opacity="0.61"/>
<path d="M582.385 117.553C584.08 117.553 585.492 116.163 585.492 114.495C585.492 112.826 584.08 111.436 582.385 111.436C580.691 111.436 579.279 112.826 579.279 114.495C579.349 116.163 580.691 117.553 582.385 117.553Z" fill="#FFA800" fill-opacity="0.61"/>
<path d="M625.734 150.365C625.734 150.643 625.804 150.852 626.016 151.06C626.228 151.269 626.44 151.339 626.722 151.339C627.005 151.339 627.216 151.269 627.428 151.06C627.64 150.852 627.711 150.643 627.711 150.365C627.711 150.087 627.64 149.879 627.428 149.67C627.216 149.462 627.005 149.392 626.722 149.392C626.44 149.392 626.228 149.462 626.016 149.67C625.875 149.879 625.734 150.157 625.734 150.365Z" fill="#FFA800" fill-opacity="0.61"/>
<path d="M626.722 11.3314C629.264 11.3314 631.311 9.31537 631.311 6.81275C631.311 4.31014 629.264 2.29415 626.722 2.29415C624.181 2.29415 622.133 4.31014 622.133 6.81275C622.133 9.31537 624.181 11.3314 626.722 11.3314Z" fill="#FFA800" fill-opacity="0.61"/>
<path d="M626.722 47.5497C629.476 47.5497 631.664 45.3947 631.664 42.6836C631.664 39.9724 629.476 37.8174 626.722 37.8174C623.969 37.8174 621.78 39.9724 621.78 42.6836C621.78 45.3947 623.969 47.5497 626.722 47.5497Z" fill="#FFA800" fill-opacity="0.61"/>
<path d="M626.722 82.7253C629.052 82.7253 630.888 80.8484 630.888 78.6238C630.888 76.3298 628.981 74.5223 626.722 74.5223C624.392 74.5223 622.557 76.3993 622.557 78.6238C622.557 80.9179 624.392 82.7253 626.722 82.7253Z" fill="#FFA800" fill-opacity="0.61"/>
<path d="M626.722 119.569C629.546 119.569 631.876 117.275 631.876 114.495C631.876 111.714 629.546 109.42 626.722 109.42C623.898 109.42 621.568 111.714 621.568 114.495C621.568 117.275 623.898 119.569 626.722 119.569Z" fill="#FFA800" fill-opacity="0.61"/>
<path d="M664.917 150.365C664.917 151.964 665.553 153.494 666.682 154.606C667.812 155.718 669.436 156.413 671.059 156.413C672.683 156.413 674.236 155.788 675.366 154.606C676.496 153.494 677.202 151.895 677.202 150.365C677.202 148.767 676.566 147.237 675.366 146.055C674.236 144.943 672.613 144.317 671.059 144.317C669.436 144.317 667.882 144.943 666.682 146.055C665.553 147.237 664.917 148.767 664.917 150.365Z" fill="#FFA800" fill-opacity="0.61"/>
<path d="M671.059 11.1923C673.53 11.1923 675.507 9.24578 675.507 6.81269C675.507 4.37959 673.53 2.43311 671.059 2.43311C668.588 2.43311 666.612 4.37959 666.612 6.81269C666.612 9.24578 668.588 11.1923 671.059 11.1923Z" fill="#FFA800" fill-opacity="0.61"/>
<path d="M671.06 44.1434C671.836 44.1434 672.472 43.5177 672.472 42.753C672.472 41.9883 671.836 41.3627 671.06 41.3627C670.283 41.3627 669.648 41.9883 669.648 42.753C669.577 43.5177 670.212 44.1434 671.06 44.1434Z" fill="#FFA800" fill-opacity="0.61"/>
<path d="M671.059 84.5328C674.378 84.5328 677.06 81.8911 677.06 78.6238C677.06 75.3565 674.378 72.7149 671.059 72.7149C667.741 72.7149 665.058 75.3565 665.058 78.6238C664.988 81.8911 667.741 84.5328 671.059 84.5328Z" fill="#FFA800" fill-opacity="0.61"/>
<path d="M671.059 119.5C673.883 119.5 676.143 117.275 676.143 114.495C676.143 111.714 673.883 109.489 671.059 109.489C668.235 109.489 665.976 111.714 665.976 114.495C665.976 117.275 668.235 119.5 671.059 119.5Z" fill="#FFA800" fill-opacity="0.61"/>
</g>
</svg>
